HIERARCHY
ROOT Hips
{
    OFFSET 0.000000 0.000000 0.000000
    CHANNELS 6 Xposition Yposition Zposition Zrotation Xrotation Yrotation
    JOINT Spine
    {
        OFFSET -0.000000 14.517291 0.000000
        CHANNELS 3 Zrotation Xrotation Yrotation
        JOINT Spine1
        {
            OFFSET -0.000000 37.558300 0.000000
            CHANNELS 3 Zrotation Xrotation Yrotation
            JOINT Neck
            {
                OFFSET -0.000000 37.404057 3.400369
                CHANNELS 3 Zrotation Xrotation Yrotation
                JOINT Head
                {
                    OFFSET -0.000000 24.785618 -3.540803
                    CHANNELS 3 Zrotation Xrotation Yrotation
                    End Site
                    {
                        OFFSET -0.000000 35.408028 0.000000
                    }
                }
            }
            JOINT LeftShoulder
            {
                OFFSET 6.992933 33.973492 -0.192664
                CHANNELS 3 Zrotation Xrotation Yrotation
                JOINT LeftArm
                {
                    OFFSET 21.527611 0.000000 0.000000
                    CHANNELS 3 Zrotation Xrotation Yrotation
                    JOINT LeftForeArm
                    {
                        OFFSET 56.353916 0.000000 0.000000
                        CHANNELS 3 Zrotation Xrotation Yrotation
                        JOINT LeftHand
                        {
                            OFFSET 47.774071 0.000000 0.000000
                            CHANNELS 3 Zrotation Xrotation Yrotation
                            End Site
                            {
                                OFFSET 26.556021 0.000000 0.000000
                            }
                        }
                    }
                }
            }
            JOINT RightShoulder
            {
                OFFSET -7.065357 33.973492 -0.192664
                CHANNELS 3 Zrotation Xrotation Yrotation
                JOINT RightArm
                {
                    OFFSET -21.527611 0.000000 0.000000
                    CHANNELS 3 Zrotation Xrotation Yrotation
                    JOINT RightForeArm
                    {
                        OFFSET -56.353916 0.000000 0.000000
                        CHANNELS 3 Zrotation Xrotation Yrotation
                        JOINT RightHand
                        {
                            OFFSET -47.774071 0.000000 0.000000
                            CHANNELS 3 Zrotation Xrotation Yrotation
                            End Site
                            {
                                OFFSET -26.556021 0.000000 0.000000
                            }
                        }
                    }
                }
            }
        }
    }
    JOINT LeftUpLeg
    {
        OFFSET 17.704014 0.000000 0.000000
        CHANNELS 3 Zrotation Xrotation Yrotation
        JOINT LeftLeg
        {
            OFFSET -0.000000 -81.181816 0.000000
            CHANNELS 3 Zrotation Xrotation Yrotation
            JOINT LeftFoot
            {
                OFFSET -0.000000 -62.821102 0.000000
                CHANNELS 3 Zrotation Xrotation Yrotation
                JOINT LeftToeBase
                {
                    OFFSET -0.000000 -11.507608 26.556021
                    CHANNELS 3 Zrotation Xrotation Yrotation
                    End Site
                    {
                        OFFSET -0.000000 0.000000 7.081605
                    }
                }
            }
        }
    }
    JOINT RightUpLeg
    {
        OFFSET -17.704014 0.000000 0.000000
        CHANNELS 3 Zrotation Xrotation Yrotation
        JOINT RightLeg
        {
            OFFSET -0.000000 -81.181816 0.000000
            CHANNELS 3 Zrotation Xrotation Yrotation
            JOINT RightFoot
            {
                OFFSET -0.000000 -62.821102 0.000000
                CHANNELS 3 Zrotation Xrotation Yrotation
                JOINT RightToeBase
                {
                    OFFSET -0.000000 -11.507608 26.556021
                    CHANNELS 3 Zrotation Xrotation Yrotation
                    End Site
                    {
                        OFFSET -0.000000 0.000000 7.081605
                    }
                }
            }
        }
    }
}
MOTION
Frames:    9
Frame Time:    0.008333
29.545906    155.449966    -100.084511    0.600486    0.218301    13.945839    1.221287    -0.757129    -0.263832    -12.882200    -1.097543    -0.214443    7.515245    11.742668    -6.186377    11.928532    -7.968274    -4.246323    11.808928    -5.827911    -13.184078    -23.945328    -33.948685    -32.402950    -15.096330    -40.084087    -87.933388    -38.842331    -39.120846    -42.901112    -20.333490    0.388501    -8.164374    17.905880    18.406010    11.450157    19.310715    -20.576586    8.194119    -28.933012    -39.749027    70.059479    3.373429    -7.109657    7.493339    -13.990762    36.652180    -14.864902    16.409662    -23.536293    47.969147    0.000000    0.000000    0.000000    -18.448597    -22.013983    -37.694965    6.815639    12.835188    -22.081038    -5.940413    14.842919    -26.695158    0.000000    0.000000    0.000000    
29.498219    155.469666    -100.042252    0.570895    0.208676    13.951518    1.228464    -0.739750    -0.261243    -12.884529    -1.145006    -0.218844    7.535350    11.728354    -6.207198    11.947373    -7.871030    -4.275778    11.823592    -5.833822    -13.183751    -23.935961    -33.934143    -32.385448    -15.064550    -40.113018    -87.904747    -38.834435    -39.122658    -42.900948    -20.305784    0.394770    -8.179962    17.973989    18.400703    11.456945    19.303576    -20.568907    8.229777    -28.905642    -39.715218    70.008659    3.414723    -7.085360    7.483915    -13.960509    36.626244    -14.895458    16.365751    -23.554333    47.975838    0.000000    0.000000    0.000000    -18.384539    -21.986727    -37.704426    6.805130    12.804462    -22.050217    -5.897430    14.830060    -26.727221    0.000000    0.000000    0.000000    
29.447439    155.488770    -100.001648    0.541877    0.194057    13.952821    1.241007    -0.715216    -0.254474    -12.900870    -1.193692    -0.222496    7.576393    11.717490    -6.213201    11.954852    -7.792427    -4.290931    11.846804    -5.837359    -13.183812    -23.917587    -33.933369    -32.373085    -15.035698    -40.138733    -87.859001    -38.829094    -39.116249    -42.909729    -20.269697    0.410496    -8.195648    17.089071    18.205540    11.339795    19.303576    -20.568907    8.229777    -28.905642    -39.715218    70.008659    3.459527    -7.054515    7.440258    -13.966154    36.586979    -14.868909    16.346476    -23.555088    47.984173    0.000000    0.000000    0.000000    -18.313515    -21.959545    -37.701839    6.788781    12.772349    -22.056322    -5.891808    14.827686    -26.708635    0.000000    0.000000    0.000000    
29.396879    155.506241    -99.959686    0.518158    0.176333    13.957835    1.247881    -0.698663    -0.254884    -12.915948    -1.218823    -0.225714    7.627486    11.737060    -6.238059    11.918528    -7.774813    -4.327104    11.874622    -5.844459    -13.174858    -23.892660    -33.925308    -32.363026    -14.983363    -40.190052    -87.793129    -38.837543    -39.109352    -42.918217    -20.235407    0.416762    -8.207550    18.121256    18.422174    11.503735    19.284031    -20.623396    8.273923    -29.006191    -39.781643    69.869156    3.497853    -7.026254    7.430937    -13.932307    36.569447    -14.877829    16.299425    -23.576563    47.972801    0.000000    0.000000    0.000000    -18.246893    -21.924616    -37.704624    6.774552    12.741424    -22.025068    -5.872113    14.807323    -26.727940    0.000000    0.000000    0.000000    
29.343494    155.524445    -99.918457    0.491187    0.168425    13.962612    1.238538    -0.697761    -0.247826    -12.899518    -1.236974    -0.224841    7.625440    11.702575    -6.247670    11.960108    -7.683395    -4.340023    11.880199    -5.869589    -13.179494    -23.857672    -33.909992    -32.344440    -14.939055    -40.238384    -87.728813    -38.813717    -39.125000    -42.901817    -20.212168    0.428229    -8.222554    18.186111    18.438042    11.511641    19.271439    -20.598156    8.298567    -29.134777    -39.810017    69.772949    3.545723    -7.010778    7.393885    -13.948738    36.547329    -14.844708    16.262609    -23.577709    47.978405    0.000000    0.000000    0.000000    -18.174843    -21.905464    -37.695831    6.748749    12.705794    -22.038349    -5.853185    14.804586    -26.720947    0.000000    0.000000    0.000000    
29.289877    155.539948    -99.879929    0.462329    0.159262    13.965676    1.232948    -0.692714    -0.238782    -12.888376    -1.256984    -0.223926    7.642710    11.666959    -6.249917    11.977616    -7.604500    -4.349982    11.896252    -5.886001    -13.184366    -23.827093    -33.908867    -32.330070    -14.868523    -40.284611    -87.627136    -38.870575    -39.060131    -42.956085    -20.180965    0.448030    -8.235566    18.253822    18.484787    11.515209    19.246504    -20.573610    8.323509    -29.197962    -39.823990    69.756416    3.597832    -7.002987    7.375423    -13.949430    36.546791    -14.818586    16.216618    -23.597816    47.957737    0.000000    0.000000    0.000000    -18.102282    -21.883842    -37.667435    6.740061    12.666887    -22.039299    -5.877271    14.801523    -26.716064    0.000000    0.000000    0.000000    
29.236040    155.554291    -99.842400    0.434316    0.157270    13.966780    1.213572    -0.695193    -0.226871    -12.860335    -1.274969    -0.222352    7.656259    11.628926    -6.255136    11.991544    -7.533160    -4.363099    11.913507    -5.894813    -13.176141    -23.807617    -33.909359    -32.333992    -14.840941    -40.327480    -87.568878    -38.879070    -39.069035    -42.953159    -20.142475    0.474418    -8.249606    17.350590    18.352188    11.368041    19.246504    -20.573610    8.323509    -29.197962    -39.823990    69.756416    3.651505    -7.003161    7.350009    -13.971916    36.544418    -14.778374    16.185520    -23.605314    47.950462    0.000000    0.000000    0.000000    -18.029753    -21.877008    -37.649185    6.714147    12.634581    -22.048340    -5.872201    14.797970    -26.717054    0.000000    0.000000    0.000000    
29.184452    155.566589    -99.809242    0.407402    0.158764    13.963544    1.199374    -0.697632    -0.215281    -12.834269    -1.290279    -0.219627    7.653534    11.576804    -6.259607    12.011735    -7.459621    -4.374650    11.935009    -5.910800    -13.156403    -23.787710    -33.878086    -32.343052    -14.782898    -40.424576    -87.491638    -38.945122    -39.077091    -42.978134    -20.117899    0.497436    -8.267566    18.342140    18.586584    11.516211    19.302172    -20.541355    8.436507    -29.276688    -39.856560    69.738312    3.701422    -7.009041    7.326260    -13.995296    36.546947    -14.742767    16.162127    -23.607527    47.944710    0.000000    0.000000    0.000000    -17.962894    -21.876368    -37.608849    6.695611    12.605049    -22.036121    -5.866962    14.804910    -26.737482    0.000000    0.000000    0.000000    
29.137390    155.576309    -99.777893    0.377676    0.157092    13.961004    1.182637    -0.705926    -0.200496    -12.795805    -1.294019    -0.214568    7.679437    11.548153    -6.254647    11.991692    -7.438559    -4.378953    11.946229    -5.922474    -13.152217    -23.760138    -33.883854    -32.336895    -14.744045    -40.466618    -87.420753    -38.954487    -39.064735    -43.003311    -20.092602    0.522091    -8.272745    18.380707    18.588020    11.506346    19.363350    -20.518818    8.473591    -29.244293    -39.842167    69.786339    3.753466    -7.013116    7.304949    -14.019327    36.552502    -14.716520    16.156586    -23.609304    47.951733    0.000000    0.000000    0.000000    -17.898226    -21.876284    -37.544670    6.684708    12.583960    -22.057653    -5.861980    14.798118    -26.757444    0.000000    0.000000    0.000000    
